<svg xmlns="http://www.w3.org/2000/svg" viewBox="40 50 900 80" preserveAspectRatio="xMidYMid meet">
  <defs>
    <filter id="white-glow" x="-50%" y="-50%" width="200%" height="200%">
      <feGaussianBlur stdDeviation="3" result="blur" />
      <feMerge>
        <feMergeNode in="blur" />
        <feMergeNode in="SourceGraphic" />
      </feMerge>
    </filter>
  </defs>

  <g id="text-group-white" stroke="#ffffff" stroke-width="4" fill="none" stroke-linecap="round" stroke-linejoin="round" filter="url(#white-glow)">
    <path d="M80,60 Q50,60 50,90 Q50,120 80,120">
      <animate attributeName="stroke-dasharray" from="0,200" to="200,0" dur="1s" begin="0s;loop.end+1s" fill="freeze" keyTimes="0;1" keySplines="0.4 0 0.2 1" calcMode="spline" />
    </path>
    <path d="M110,60 V120 H140">
      <animate attributeName="stroke-dasharray" from="0,150" to="150,0" dur="1s" begin="0.1s;loop.end+1s" fill="freeze" keyTimes="0;1" keySplines="0.4 0 0.2 1" calcMode="spline" />
    </path>
    <path d="M170,120 V60 H200 M170,90 H195 M170,120 H200">
      <animate attributeName="stroke-dasharray" from="0,300" to="300,0" dur="1s" begin="0.2s;loop.end+1s" fill="freeze" keyTimes="0;1" keySplines="0.4 0 0.2 1" calcMode="spline" />
    </path>
    <path d="M230,120 V60 L260,100 L290,60 V120">
      <animate attributeName="stroke-dasharray" from="0,400" to="400,0" dur="1s" begin="0.3s;loop.end+1s" fill="freeze" keyTimes="0;1" keySplines="0.4 0 0.2 1" calcMode="spline" />
    </path>
    <path d="M320,120 V60 H350 M320,90 H345 M320,120 H350">
      <animate attributeName="stroke-dasharray" from="0,300" to="300,0" dur="1s" begin="0.4s;loop.end+1s" fill="freeze" keyTimes="0;1" keySplines="0.4 0 0.2 1" calcMode="spline" />
    </path>
    <path d="M380,120 V60 L420,120 V60">
      <animate attributeName="stroke-dasharray" from="0,300" to="300,0" dur="1s" begin="0.5s;loop.end+1s" fill="freeze" keyTimes="0;1" keySplines="0.4 0 0.2 1" calcMode="spline" />
    </path>
    <path d="M450,60 H500 M475,60 V120">
      <animate attributeName="stroke-dasharray" from="0,200" to="200,0" dur="1s" begin="0.6s;loop.end+1s" fill="freeze" keyTimes="0;1" keySplines="0.4 0 0.2 1" calcMode="spline" />
    </path>
    <path d="M560,60 V120 M560,90 H600 M600,60 V120">
      <animate attributeName="stroke-dasharray" from="0,300" to="300,0" dur="1s" begin="0.7s;loop.end+1s" fill="freeze" keyTimes="0;1" keySplines="0.4 0 0.2 1" calcMode="spline" />
    </path>
    <path d="M670,120 Q640,120 640,90 Q640,60 670,60 Q700,60 700,90 Q700,120 670,120 Z">
      <animate attributeName="stroke-dasharray" from="0,300" to="300,0" dur="1s" begin="0.8s;loop.end+1s" fill="freeze" keyTimes="0;1" keySplines="0.4 0 0.2 1" calcMode="spline" />
    </path>
    <path d="M740,120 L765,60 L790,120 M750,100 H780">
      <animate attributeName="stroke-dasharray" from="0,300" to="300,0" dur="1s" begin="0.9s;loop.end+1s" fill="freeze" keyTimes="0;1" keySplines="0.4 0 0.2 1" calcMode="spline" />
    </path>
    <path d="M820,120 V60 L860,120 V60">
      <animate attributeName="stroke-dasharray" from="0,300" to="300,0" dur="1s" begin="1.0s;loop.end+1s" fill="freeze" keyTimes="0;1" keySplines="0.4 0 0.2 1" calcMode="spline" />
    </path>
    <path d="M930,90 Q930,60 900,60 Q870,60 870,90 Q870,120 900,120 H930 V85 H910">
      <animate id="loop" attributeName="stroke-dasharray" from="0,400" to="400,0" dur="1s" begin="1.1s;loop.end+1s" fill="freeze" keyTimes="0;1" keySplines="0.4 0 0.2 1" calcMode="spline" />
    </path>
  </g>
</svg>
